# xmcd
#
# Track frame offsets:
#	150
#	21155
#	30390
#	42913
#	57512
#	71584
#	84616
#	98225
#	114460
#	129028
#
# Disc length: 1934 seconds
#
# Revision: 0
# Processed by: cddbd v1.5.2PL0 Copyright (c) Steve Scherf et al.
# Submitted via: EasyCDDAExtractor 16.0.6.1
#
DISCID=7b078c0a
DTITLE=Συλλογικός δίσκος - Λαϊκό τραγούδι στον κινηματογράφο 1
DYEAR=2008
DGENRE=Λαϊκή
TTITLE0=Μακρής Ορέστης-Βάνου Τζένη - Της μιάς δραχμής τα γιασεμιά [Αττίκ]
TTITLE1=Μακρής Ορέστης-Αυλωνίτης-Παπαγ/λος-Σταυρίδης-Φωτ/λος-Ευθυμίου-Λειβαδίτ
TTITLE1=ης - Εφτά παλληκάρια [Μ. Πλέσσας-Ι. Καμπανέλλης]
TTITLE2=Φόνσου Άννα-Τρίο Μπελκάντο - Μάκια, μάκια [Τάκης Μωράκης-Γιώργος Γιανν
TTITLE2=ακόπουλος]
TTITLE3=Βρανά Σπεράντζα - Νταμ ντίμπι νταμ [Μπάμπης Μπακάλης]
TTITLE4=Λαβάρ Νινέτ - Κισμέτ [Τάκης Μωράκης-Γιώργος Γιαννακόπουλος]
TTITLE5=Φόνσου Άννα-Τρίο Μπελκάντο - Έχω μιά καλή ιδέα [Τάκης Μωράκης-Νάντια Κ
TTITLE5=ωνσταντοπούλου]
TTITLE6=Κωνσταντοπούλου Νάντια-Τρίο Μπελκάντο - Ο ψαράς [Τάκης Μωράκης-Νέστορα
TTITLE6=ς Μάτσας]
TTITLE7=Λάουρα-Τσιτσάνης Βασίλης - Σατράπισσα με λένε [Βασίλης Τσιτσάνης]
TTITLE8=Μπιθικώτσης Γρηγόρης-Γιουλάκης Νίκος - Στον Πειραιά συννέφιασε [Γιώργο
TTITLE8=ς Μητσάκης]
TTITLE9=Μπιθικώτσης Γρηγόρης - Μάννα μου και Παναγιά [Μίκης Θεοδωράκης-Τ. Λειβ
TTITLE9=αδίτης]
EXTD=
EXTT0=
EXTT1=
EXTT2=
EXTT3=
EXTT4=
EXTT5=
EXTT6=
EXTT7=
EXTT8=
EXTT9=
PLAYORDER=
